<svg xmlns="http://www.w3.org/2000/svg" viewBox="0 0 225.08 56.68"><defs><style>.cls-1{fill:#fff;}</style></defs><g id="Layer_2" data-name="Layer 2"><g id="Layer_1-2" data-name="Layer 1"><g id="Group_17" data-name="Group 17"><path id="Path_686" data-name="Path 686" class="cls-1" d="M9.43,0,0,9.44V37.35l9.4,9.42H42.32l9.41-9.42V9.42L42.31,0ZM42.35,34.21l-3.12,3.13H12.79L9.35,33.88V13.34L13.2,9.48l26.06,0,3.1,3.1Z"/><rect id="Rectangle_621" data-name="Rectangle 621" class="cls-1" x="13.78" y="48.26" width="24.19" height="8.43"/><path id="Path_687" data-name="Path 687" class="cls-1" d="M99.77,33.61,96,37.41H73l-3.87-3.88V.79h-9.4l0,36.56,9.42,9.43h31l9.36-9.37V.79h-9.7Z"/><path id="Path_688" data-name="Path 688" class="cls-1" d="M162.71,22.9a16,16,0,0,0,2.8-9c0-5.39-5.61-13.07-14.63-13.07H118.65V46.43h39.88s10.54-6.68,10.54-12.82S162.71,22.9,162.71,22.9ZM128.05,9.69l25.4-.25a8.68,8.68,0,0,1,0,10.14h-25.4Zm28.29,27.92H128.05v-9.9l28.29-.25A8.69,8.69,0,0,1,156.34,37.61Z"/><path id="Path_689" data-name="Path 689" class="cls-1" d="M189.85,9.44h35.23V.79h-39l-9.68,8.65V37.35l9.4,9.41h39.23v-9.5H191.23L186,32V27.45h34.66V19.58H186V13.31Z"/></g></g></g></svg>